<svg width="103" height="27" viewBox="0 0 103 27" fill="none" xmlns="http://www.w3.org/2000/svg">
<path d="M3.10237 7.41039H7.60882V9.0953H3.10237V7.41039ZM3.26283 11.2616H8.35766V13H1.1099V3.63942H8.18383V5.37781H3.26283V11.2616ZM10.0813 13V3.63942H11.8732L15.8581 10.2453H14.9087L18.8268 3.63942H20.6053L20.632 13H18.5995L18.5861 6.75515H18.9605L15.8314 12.0105H14.8552L11.6593 6.75515H12.1139V13H10.0813ZM22.8529 13V3.63942H27.4262C28.603 3.63942 29.4855 3.86229 30.0739 4.30803C30.6712 4.75377 30.9698 5.34215 30.9698 6.07317C30.9698 6.56348 30.8495 6.9914 30.6088 7.3569C30.3681 7.7135 30.0382 7.98986 29.6193 8.18599C29.2003 8.38211 28.7189 8.48017 28.175 8.48017L28.4291 7.93191C29.0175 7.93191 29.539 8.02998 29.9937 8.2261C30.4483 8.41331 30.8005 8.69413 31.0501 9.06855C31.3086 9.44298 31.4379 9.90209 31.4379 10.4459C31.4379 11.2482 31.1214 11.8767 30.4884 12.3314C29.8555 12.7771 28.9239 13 27.6936 13H22.8529ZM25.0058 11.3686H27.5332C28.0948 11.3686 28.5183 11.2794 28.8035 11.1011C29.0977 10.9139 29.2448 10.6197 29.2448 10.2186C29.2448 9.82632 29.0977 9.53658 28.8035 9.34937C28.5183 9.15325 28.0948 9.05518 27.5332 9.05518H24.8454V7.47726H27.1588C27.6847 7.47726 28.0859 7.38811 28.3623 7.20981C28.6475 7.0226 28.7902 6.74178 28.7902 6.36736C28.7902 6.00185 28.6475 5.72995 28.3623 5.55165C28.0859 5.36444 27.6847 5.27083 27.1588 5.27083H25.0058V11.3686ZM31.8477 13L36.0199 3.63942H38.1594L42.3449 13H40.0717L36.6484 4.73594H37.5042L34.0675 13H31.8477ZM33.9338 10.9942L34.5088 9.34937H39.3228L39.9112 10.9942H33.9338ZM43.3161 13V3.63942H45.4824V11.2349H50.1761V13H43.3161ZM50.2085 13L54.3806 3.63942H56.5202L60.7057 13H58.4324L55.0091 4.73594H55.8649L52.4283 13H50.2085ZM52.2945 10.9942L52.8695 9.34937H57.6836L58.2719 10.9942H52.2945ZM66.0661 13.1605C65.3262 13.1605 64.6442 13.0446 64.0201 12.8128C63.405 12.5721 62.8657 12.2333 62.4021 11.7965C61.9474 11.3597 61.5908 10.8471 61.3323 10.2587C61.0827 9.67031 60.9579 9.02398 60.9579 8.31971C60.9579 7.61544 61.0827 6.96911 61.3323 6.38073C61.5908 5.79235 61.9519 5.27975 62.4155 4.84292C62.879 4.40609 63.4228 4.07179 64.0469 3.84C64.6709 3.5993 65.3574 3.47895 66.1062 3.47895C66.9353 3.47895 67.6797 3.61713 68.3394 3.89349C69.008 4.16985 69.5696 4.57102 70.0243 5.09699L68.6336 6.38073C68.2948 6.02414 67.9248 5.76115 67.5237 5.59177C67.1225 5.41347 66.6857 5.32432 66.2132 5.32432C65.7585 5.32432 65.344 5.39564 64.9696 5.53828C64.5951 5.68091 64.2697 5.88596 63.9934 6.1534C63.7259 6.42085 63.5164 6.73732 63.3649 7.10283C63.2223 7.46834 63.1509 7.87397 63.1509 8.31971C63.1509 8.75653 63.2223 9.1577 63.3649 9.52321C63.5164 9.88872 63.7259 10.2097 63.9934 10.486C64.2697 10.7535 64.5907 10.9585 64.9562 11.1011C65.3306 11.2438 65.7407 11.3151 66.1864 11.3151C66.6143 11.3151 67.0289 11.2482 67.4301 11.1145C67.8401 10.9719 68.2369 10.7356 68.6202 10.4058L69.8504 11.9703C69.3423 12.3537 68.7495 12.6479 68.0719 12.8529C67.4033 13.0579 66.7347 13.1605 66.0661 13.1605ZM67.8713 11.6895V8.17261H69.8504V11.9703L67.8713 11.6895ZM73.8552 7.41039H78.3617V9.0953H73.8552V7.41039ZM74.0157 11.2616H79.1105V13H71.8628V3.63942H78.9367V5.37781H74.0157V11.2616ZM80.8342 13V3.63942H82.6261L88.1488 10.379H87.2796V3.63942H89.4192V13H87.6407L82.1045 6.26038H82.9737V13H80.8342ZM94.7095 13.1605C93.9606 13.1605 93.243 13.0624 92.5565 12.8663C91.8701 12.6612 91.3174 12.3982 90.8984 12.0773L91.6339 10.4459C92.035 10.7312 92.5075 10.9674 93.0513 11.1546C93.604 11.3329 94.1612 11.4221 94.7228 11.4221C95.1508 11.4221 95.494 11.382 95.7525 11.3017C96.02 11.2126 96.2161 11.0922 96.3409 10.9407C96.4657 10.7891 96.5281 10.6153 96.5281 10.4192C96.5281 10.1695 96.43 9.97341 96.2339 9.83077C96.0378 9.67922 95.7793 9.55887 95.4583 9.46972C95.1374 9.37166 94.7808 9.28251 94.3885 9.20228C94.0052 9.11313 93.6174 9.00615 93.2252 8.88134C92.8418 8.75653 92.4897 8.59607 92.1687 8.39994C91.8478 8.20381 91.5848 7.94528 91.3798 7.62435C91.1837 7.30342 91.0856 6.89333 91.0856 6.3941C91.0856 5.85921 91.2282 5.37335 91.5135 4.93652C91.8077 4.49078 92.2445 4.13865 92.824 3.88012C93.4124 3.61267 94.1478 3.47895 95.0304 3.47895C95.6188 3.47895 96.1983 3.55027 96.7688 3.6929C97.3394 3.82663 97.843 4.03167 98.2799 4.30803L97.6113 5.95282C97.1744 5.7032 96.7376 5.52045 96.3008 5.40455C95.8639 5.27975 95.436 5.21734 95.017 5.21734C94.598 5.21734 94.2548 5.26637 93.9874 5.36444C93.7199 5.4625 93.5283 5.59177 93.4124 5.75223C93.2965 5.90379 93.2385 6.08208 93.2385 6.28712C93.2385 6.52782 93.3366 6.72395 93.5327 6.8755C93.7288 7.01814 93.9874 7.13403 94.3083 7.22318C94.6292 7.31233 94.9814 7.40148 95.3647 7.49063C95.757 7.57978 96.1448 7.6823 96.5281 7.79819C96.9204 7.91408 97.2769 8.07009 97.5979 8.26622C97.9188 8.46235 98.1773 8.72088 98.3735 9.04181C98.5785 9.36274 98.681 9.76837 98.681 10.2587C98.681 10.7847 98.5339 11.2661 98.2398 11.7029C97.9456 12.1397 97.5043 12.4919 96.9159 12.7593C96.3364 13.0267 95.601 13.1605 94.7095 13.1605Z" fill="#202020"/>
<path d="M12.819 25.0439V18.1794H13.4172L16.5552 23.5337H16.2414L19.35 18.1794H19.9482V25.0439H19.2519V19.2679H19.4186L16.5552 24.1711H16.212L13.3289 19.2679H13.5152V25.0439H12.819ZM24.9502 25.1027C24.0741 25.1027 23.3844 24.851 22.881 24.3476C22.3776 23.8442 22.1259 23.0989 22.1259 22.1118V18.1794H22.8516V22.0824C22.8516 22.893 23.0347 23.4912 23.4008 23.8769C23.7669 24.2626 24.2833 24.4555 24.9502 24.4555C25.6235 24.4555 26.1433 24.2626 26.5094 23.8769C26.8755 23.4912 27.0585 22.893 27.0585 22.0824V18.1794H27.7646V22.1118C27.7646 23.0989 27.5129 23.8442 27.0095 24.3476C26.5126 24.851 25.8262 25.1027 24.9502 25.1027ZM29.9513 25.0439V18.1794H30.5495L35.286 24.1417H34.9722V18.1794H35.688V25.0439H35.0898L30.3632 19.0816H30.677V25.0439H29.9513ZM37.9285 25.0439V18.1794H40.7233C41.4555 18.1794 42.0962 18.3265 42.6454 18.6207C43.2011 18.9084 43.6325 19.3104 43.9398 19.8269C44.2471 20.3434 44.4007 20.9383 44.4007 21.6116C44.4007 22.285 44.2471 22.8799 43.9398 23.3964C43.6325 23.9129 43.2011 24.3182 42.6454 24.6124C42.0962 24.9 41.4555 25.0439 40.7233 25.0439H37.9285ZM38.6542 24.4163H40.6841C41.2921 24.4163 41.8184 24.2986 42.2629 24.0632C42.714 23.8213 43.0638 23.4912 43.3122 23.0728C43.5606 22.6478 43.6848 22.1608 43.6848 21.6116C43.6848 21.056 43.5606 20.5689 43.3122 20.1505C43.0638 19.7321 42.714 19.4052 42.2629 19.1699C41.8184 18.928 41.2921 18.807 40.6841 18.807H38.6542V24.4163ZM49.031 25.1027C48.5145 25.1027 48.034 25.0177 47.5895 24.8477C47.1514 24.6712 46.769 24.4261 46.4421 24.1123C46.1218 23.7919 45.8701 23.4225 45.687 23.0041C45.5105 22.5792 45.4223 22.115 45.4223 21.6116C45.4223 21.1083 45.5105 20.6474 45.687 20.229C45.8701 19.804 46.1218 19.4346 46.4421 19.1208C46.769 18.8005 47.1514 18.5553 47.5895 18.3854C48.0275 18.2089 48.508 18.1206 49.031 18.1206C49.5474 18.1206 50.0247 18.2089 50.4627 18.3854C50.9007 18.5553 51.2799 18.7972 51.6002 19.111C51.9271 19.4248 52.1788 19.7942 52.3553 20.2191C52.5384 20.6441 52.6299 21.1083 52.6299 21.6116C52.6299 22.115 52.5384 22.5792 52.3553 23.0041C52.1788 23.4291 51.9271 23.7985 51.6002 24.1123C51.2799 24.4261 50.9007 24.6712 50.4627 24.8477C50.0247 25.0177 49.5474 25.1027 49.031 25.1027ZM49.031 24.4555C49.4428 24.4555 49.822 24.3868 50.1685 24.2495C50.5215 24.1057 50.8255 23.9063 51.0805 23.6514C51.342 23.3899 51.5447 23.0891 51.6885 22.7492C51.8323 22.4027 51.9042 22.0235 51.9042 21.6116C51.9042 21.1998 51.8323 20.8239 51.6885 20.4839C51.5447 20.1374 51.342 19.8367 51.0805 19.5817C50.8255 19.3202 50.5215 19.1208 50.1685 18.9836C49.822 18.8397 49.4428 18.7678 49.031 18.7678C48.6191 18.7678 48.2367 18.8397 47.8836 18.9836C47.5306 19.1208 47.2233 19.3202 46.9618 19.5817C46.7069 19.8367 46.5042 20.1374 46.3539 20.4839C46.21 20.8239 46.1381 21.1998 46.1381 21.6116C46.1381 22.017 46.21 22.3929 46.3539 22.7394C46.5042 23.0859 46.7069 23.3899 46.9618 23.6514C47.2233 23.9063 47.5306 24.1057 47.8836 24.2495C48.2367 24.3868 48.6191 24.4555 49.031 24.4555ZM55.7246 25.0439L58.8627 18.1794H59.5785L62.7165 25.0439H61.9517L59.0686 18.6011H59.3628L56.4797 25.0439H55.7246ZM56.9602 23.2101L57.176 22.6217H61.1671L61.3829 23.2101H56.9602ZM64.4993 21.5038H68.1276V22.1314H64.4993V21.5038ZM64.5778 25.0439H63.8521V18.1794H68.5591V18.807H64.5778V25.0439ZM72.9722 25.1027C72.4557 25.1027 71.9752 25.0177 71.5307 24.8477C71.0927 24.6712 70.7102 24.4261 70.3833 24.1123C70.063 23.7919 69.8113 23.4225 69.6282 23.0041C69.4517 22.5792 69.3635 22.115 69.3635 21.6116C69.3635 21.1083 69.4517 20.6474 69.6282 20.229C69.8113 19.804 70.063 19.4346 70.3833 19.1208C70.7102 18.8005 71.0927 18.5553 71.5307 18.3854C71.9687 18.2089 72.4492 18.1206 72.9722 18.1206C73.4887 18.1206 73.9659 18.2089 74.4039 18.3854C74.8419 18.5553 75.2211 18.7972 75.5415 19.111C75.8683 19.4248 76.12 19.7942 76.2966 20.2191C76.4796 20.6441 76.5711 21.1083 76.5711 21.6116C76.5711 22.115 76.4796 22.5792 76.2966 23.0041C76.12 23.4291 75.8683 23.7985 75.5415 24.1123C75.2211 24.4261 74.8419 24.6712 74.4039 24.8477C73.9659 25.0177 73.4887 25.1027 72.9722 25.1027ZM72.9722 24.4555C73.3841 24.4555 73.7633 24.3868 74.1097 24.2495C74.4628 24.1057 74.7668 23.9063 75.0217 23.6514C75.2832 23.3899 75.4859 23.0891 75.6297 22.7492C75.7735 22.4027 75.8455 22.0235 75.8455 21.6116C75.8455 21.1998 75.7735 20.8239 75.6297 20.4839C75.4859 20.1374 75.2832 19.8367 75.0217 19.5817C74.7668 19.3202 74.4628 19.1208 74.1097 18.9836C73.7633 18.8397 73.3841 18.7678 72.9722 18.7678C72.5603 18.7678 72.1779 18.8397 71.8249 18.9836C71.4718 19.1208 71.1646 19.3202 70.9031 19.5817C70.6481 19.8367 70.4454 20.1374 70.2951 20.4839C70.1513 20.8239 70.0793 21.1998 70.0793 21.6116C70.0793 22.017 70.1513 22.3929 70.2951 22.7394C70.4454 23.0859 70.6481 23.3899 70.9031 23.6514C71.1646 23.9063 71.4718 24.1057 71.8249 24.2495C72.1779 24.3868 72.5603 24.4555 72.9722 24.4555ZM78.1977 25.0439V18.1794H80.7669C81.3488 18.1794 81.8489 18.2742 82.2673 18.4638C82.6857 18.6469 83.006 18.9149 83.2283 19.2679C83.4571 19.6144 83.5715 20.0361 83.5715 20.533C83.5715 21.0167 83.4571 21.4351 83.2283 21.7882C83.006 22.1347 82.6857 22.4027 82.2673 22.5923C81.8489 22.7753 81.3488 22.8669 80.7669 22.8669H78.5997L78.9233 22.5334V25.0439H78.1977ZM82.8851 25.0439L81.12 22.5531H81.9045L83.6794 25.0439H82.8851ZM78.9233 22.5923L78.5997 22.2491H80.7473C81.4338 22.2491 81.9535 22.0987 82.3065 21.798C82.6661 21.4972 82.8459 21.0756 82.8459 20.533C82.8459 19.9838 82.6661 19.5589 82.3065 19.2581C81.9535 18.9574 81.4338 18.807 80.7473 18.807H78.5997L78.9233 18.4638V22.5923ZM84.186 25.0439L87.324 18.1794H88.0399L91.1779 25.0439H90.413L87.5299 18.6011H87.8241L84.9411 25.0439H84.186ZM85.4216 23.2101L85.6373 22.6217H89.6285L89.8442 23.2101H85.4216Z" fill="#202020"/>
</svg>
