<svg width="116" height="25" viewBox="0 0 116 25" fill="none" xmlns="http://www.w3.org/2000/svg">
<path d="M15.597 12.4427V3.08215H19.6488C20.4867 3.08215 21.2089 3.22033 21.8151 3.49669C22.4213 3.76414 22.8893 4.15193 23.2191 4.66008C23.549 5.16823 23.7139 5.77444 23.7139 6.47871C23.7139 7.17407 23.549 7.77582 23.2191 8.28396C22.8893 8.79211 22.4213 9.18436 21.8151 9.46072C21.2089 9.72817 20.4867 9.86189 19.6488 9.86189H16.8005L17.7633 8.88572V12.4427H15.597ZM17.7633 9.12642L16.8005 8.09675H19.5284C20.197 8.09675 20.6962 7.95411 21.0261 7.66884C21.3559 7.38356 21.5209 6.98685 21.5209 6.47871C21.5209 5.96165 21.3559 5.56048 21.0261 5.2752C20.6962 4.98993 20.197 4.84729 19.5284 4.84729H16.8005L17.7633 3.81763V9.12642ZM23.5601 12.4427L27.7323 3.08215H29.8718L34.0574 12.4427H31.7841L28.3608 4.17868H29.2166L25.7799 12.4427H23.5601ZM25.6462 10.4369L26.2212 8.79211H31.0352L31.6236 10.4369H25.6462ZM39.3776 12.6032C38.6555 12.6032 37.9825 12.4873 37.3584 12.2555C36.7433 12.0148 36.2084 11.6761 35.7538 11.2392C35.2991 10.8024 34.9425 10.2898 34.684 9.70142C34.4344 9.11304 34.3096 8.46672 34.3096 7.76245C34.3096 7.05817 34.4344 6.41185 34.684 5.82347C34.9425 5.23509 35.2991 4.72248 35.7538 4.28566C36.2173 3.84883 36.7567 3.51452 37.3718 3.28274C37.9869 3.04204 38.66 2.92169 39.391 2.92169C40.2023 2.92169 40.9333 3.06432 41.5841 3.3496C42.2438 3.62596 42.7965 4.03604 43.2422 4.57985L41.8515 5.86358C41.5306 5.49808 41.174 5.22617 40.7817 5.04788C40.3895 4.86066 39.9616 4.76706 39.498 4.76706C39.0612 4.76706 38.66 4.83838 38.2945 4.98101C37.929 5.12365 37.6125 5.32869 37.3451 5.59614C37.0776 5.86358 36.8681 6.18006 36.7166 6.54557C36.5739 6.91108 36.5026 7.3167 36.5026 7.76245C36.5026 8.20819 36.5739 8.61381 36.7166 8.97932C36.8681 9.34483 37.0776 9.66131 37.3451 9.92875C37.6125 10.1962 37.929 10.4012 38.2945 10.5439C38.66 10.6865 39.0612 10.7578 39.498 10.7578C39.9616 10.7578 40.3895 10.6687 40.7817 10.4904C41.174 10.3032 41.5306 10.0224 41.8515 9.64793L43.2422 10.9317C42.7965 11.4755 42.2438 11.89 41.5841 12.1753C40.9333 12.4606 40.1978 12.6032 39.3776 12.6032ZM46.6441 10.3032L46.5238 7.80256L51.0035 3.08215H53.4105L49.3721 7.42814L48.1686 8.71188L46.6441 10.3032ZM44.7051 12.4427V3.08215H46.8581V12.4427H44.7051ZM51.1104 12.4427L47.7808 8.3642L49.1982 6.82639L53.6378 12.4427H51.1104ZM52.9426 12.4427L57.1147 3.08215H59.2543L63.4398 12.4427H61.1665L57.7432 4.17868H58.599L55.1623 12.4427H52.9426ZM55.0286 10.4369L55.6036 8.79211H60.4176L61.006 10.4369H55.0286ZM68.8002 12.6032C68.0602 12.6032 67.3783 12.4873 66.7542 12.2555C66.1391 12.0148 65.5998 11.6761 65.1362 11.2392C64.6815 10.8024 64.3249 10.2898 64.0664 9.70142C63.8168 9.11304 63.692 8.46672 63.692 7.76245C63.692 7.05817 63.8168 6.41185 64.0664 5.82347C64.3249 5.23509 64.686 4.72248 65.1496 4.28566C65.6131 3.84883 66.1569 3.51452 66.781 3.28274C67.405 3.04204 68.0914 2.92169 68.8403 2.92169C69.6694 2.92169 70.4138 3.05987 71.0735 3.33623C71.7421 3.61259 72.3037 4.01375 72.7584 4.53973L71.3677 5.82347C71.0289 5.46687 70.6589 5.20389 70.2578 5.0345C69.8566 4.85621 69.4198 4.76706 68.9473 4.76706C68.4926 4.76706 68.0781 4.83838 67.7037 4.98101C67.3292 5.12365 67.0038 5.32869 66.7275 5.59614C66.46 5.86358 66.2505 6.18006 66.099 6.54557C65.9563 6.91108 65.885 7.3167 65.885 7.76245C65.885 8.19927 65.9563 8.60044 66.099 8.96595C66.2505 9.33146 66.46 9.65239 66.7275 9.92875C67.0038 10.1962 67.3248 10.4012 67.6903 10.5439C68.0647 10.6865 68.4748 10.7578 68.9205 10.7578C69.3484 10.7578 69.763 10.691 70.1641 10.5572C70.5742 10.4146 70.9709 10.1784 71.3543 9.84852L72.5845 11.4131C72.0764 11.7964 71.4835 12.0906 70.806 12.2956C70.1374 12.5007 69.4688 12.6032 68.8002 12.6032ZM70.6054 11.1323V7.61535H72.5845V11.4131L70.6054 11.1323ZM74.5968 12.4427V3.08215H76.7632V12.4427H74.5968ZM78.9846 12.4427V3.08215H80.7765L86.2992 9.82177H85.4301V3.08215H87.5696V12.4427H85.7911L80.255 5.70312H81.1242V12.4427H78.9846ZM94.3041 12.6032C93.5642 12.6032 92.8822 12.4873 92.2582 12.2555C91.643 12.0148 91.1037 11.6761 90.6401 11.2392C90.1855 10.8024 89.8289 10.2898 89.5703 9.70142C89.3207 9.11304 89.1959 8.46672 89.1959 7.76245C89.1959 7.05817 89.3207 6.41185 89.5703 5.82347C89.8289 5.23509 90.1899 4.72248 90.6535 4.28566C91.1171 3.84883 91.6609 3.51452 92.2849 3.28274C92.9089 3.04204 93.5954 2.92169 94.3442 2.92169C95.1733 2.92169 95.9177 3.05987 96.5774 3.33623C97.246 3.61259 97.8076 4.01375 98.2623 4.53973L96.8716 5.82347C96.5328 5.46687 96.1629 5.20389 95.7617 5.0345C95.3605 4.85621 94.9237 4.76706 94.4512 4.76706C93.9966 4.76706 93.582 4.83838 93.2076 4.98101C92.8332 5.12365 92.5078 5.32869 92.2314 5.59614C91.964 5.86358 91.7545 6.18006 91.6029 6.54557C91.4603 6.91108 91.389 7.3167 91.389 7.76245C91.389 8.19927 91.4603 8.60044 91.6029 8.96595C91.7545 9.33146 91.964 9.65239 92.2314 9.92875C92.5078 10.1962 92.8287 10.4012 93.1942 10.5439C93.5686 10.6865 93.9787 10.7578 94.4245 10.7578C94.8524 10.7578 95.2669 10.691 95.6681 10.5572C96.0782 10.4146 96.4749 10.1784 96.8582 9.84852L98.0885 11.4131C97.5803 11.7964 96.9875 12.0906 96.31 12.2956C95.6413 12.5007 94.9727 12.6032 94.3041 12.6032ZM96.1094 11.1323V7.61535H98.0885V11.4131L96.1094 11.1323Z" fill="#202020"/>
<path d="M0.0205467 24.4866L3.22989 17.4662H3.96202L7.17136 24.4866H6.38909L3.4405 17.8974H3.74138L0.792795 24.4866H0.0205467ZM1.28423 22.6111L1.50487 22.0094H5.58675L5.80739 22.6111H1.28423ZM8.33271 24.4866V17.4662H10.9604C11.5554 17.4662 12.0669 17.5631 12.4948 17.757C12.9227 17.9442 13.2504 18.2184 13.4777 18.5794C13.7117 18.9338 13.8287 19.365 13.8287 19.8732C13.8287 20.3679 13.7117 20.7959 13.4777 21.1569C13.2504 21.5113 12.9227 21.7854 12.4948 21.9793C12.0669 22.1665 11.5554 22.2601 10.9604 22.2601H8.74391L9.07488 21.9191V24.4866H8.33271ZM13.1267 24.4866L11.3214 21.9392H12.1238L13.939 24.4866H13.1267ZM9.07488 21.9793L8.74391 21.6283H10.9403C11.6423 21.6283 12.1739 21.4745 12.5349 21.1669C12.9027 20.8594 13.0866 20.4281 13.0866 19.8732C13.0866 19.3115 12.9027 18.8769 12.5349 18.5694C12.1739 18.2618 11.6423 18.108 10.9403 18.108H8.74391L9.07488 17.757V21.9793ZM18.6493 24.5468C18.1211 24.5468 17.6297 24.4599 17.175 24.286C16.727 24.1055 16.3359 23.8548 16.0016 23.5338C15.674 23.2062 15.4166 22.8284 15.2294 22.4005C15.0488 21.9659 14.9586 21.4912 14.9586 20.9764C14.9586 20.4616 15.0488 19.9902 15.2294 19.5623C15.4166 19.1277 15.674 18.7499 16.0016 18.429C16.3359 18.1013 16.727 17.8506 17.175 17.6768C17.623 17.4963 18.1144 17.406 18.6493 17.406C19.1775 17.406 19.6656 17.4963 20.1136 17.6768C20.5615 17.8506 20.9493 18.098 21.277 18.4189C21.6113 18.7399 21.8687 19.1176 22.0492 19.5522C22.2364 19.9868 22.33 20.4616 22.33 20.9764C22.33 21.4912 22.2364 21.9659 22.0492 22.4005C21.8687 22.8351 21.6113 23.2129 21.277 23.5338C20.9493 23.8548 20.5615 24.1055 20.1136 24.286C19.6656 24.4599 19.1775 24.5468 18.6493 24.5468ZM18.6493 23.8849C19.0705 23.8849 19.4583 23.8146 19.8127 23.6742C20.1737 23.5271 20.4847 23.3232 20.7454 23.0625C21.0129 22.795 21.2201 22.4874 21.3672 22.1398C21.5143 21.7854 21.5879 21.3976 21.5879 20.9764C21.5879 20.5552 21.5143 20.1707 21.3672 19.823C21.2201 19.4687 21.0129 19.1611 20.7454 18.9003C20.4847 18.6329 20.1737 18.429 19.8127 18.2886C19.4583 18.1415 19.0705 18.0679 18.6493 18.0679C18.2281 18.0679 17.8369 18.1415 17.4759 18.2886C17.1148 18.429 16.8006 18.6329 16.5332 18.9003C16.2724 19.1611 16.0651 19.4687 15.9113 19.823C15.7642 20.1707 15.6907 20.5552 15.6907 20.9764C15.6907 21.3909 15.7642 21.7754 15.9113 22.1297C16.0651 22.4841 16.2724 22.795 16.5332 23.0625C16.8006 23.3232 17.1148 23.5271 17.4759 23.6742C17.8369 23.8146 18.2281 23.8849 18.6493 23.8849ZM26.8218 24.5468C25.9258 24.5468 25.2204 24.2894 24.7056 23.7745C24.1908 23.2597 23.9334 22.4975 23.9334 21.4879V17.4662H24.6755V21.4578C24.6755 22.2869 24.8627 22.8986 25.2372 23.2931C25.6116 23.6876 26.1398 23.8849 26.8218 23.8849C27.5104 23.8849 28.042 23.6876 28.4164 23.2931C28.7908 22.8986 28.9781 22.2869 28.9781 21.4578V17.4662H29.7002V21.4879C29.7002 22.4975 29.4427 23.2597 28.9279 23.7745C28.4198 24.2894 27.7177 24.5468 26.8218 24.5468ZM31.9366 24.4866V17.4662H32.5484L37.3925 23.5639H37.0715V17.4662H37.8037V24.4866H37.1919L32.3578 18.3889H32.6787V24.4866H31.9366ZM40.0951 24.4866V17.4662H42.9534C43.7023 17.4662 44.3575 17.6166 44.9191 17.9175C45.4875 18.2117 45.9288 18.6229 46.243 19.1511C46.5573 19.6793 46.7144 20.2877 46.7144 20.9764C46.7144 21.6651 46.5573 22.2735 46.243 22.8017C45.9288 23.3299 45.4875 23.7444 44.9191 24.0453C44.3575 24.3395 43.7023 24.4866 42.9534 24.4866H40.0951ZM40.8373 23.8447H42.9133C43.5351 23.8447 44.0734 23.7244 44.528 23.4837C44.9894 23.2363 45.3471 22.8986 45.6011 22.4707C45.8552 22.0361 45.9822 21.538 45.9822 20.9764C45.9822 20.4081 45.8552 19.9099 45.6011 19.482C45.3471 19.0541 44.9894 18.7198 44.528 18.4791C44.0734 18.2317 43.5351 18.108 42.9133 18.108H40.8373V23.8447ZM52.3697 24.4866V18.108H49.9026V17.4662H55.5791V18.108H53.1119V24.4866H52.3697ZM61.8997 17.4662H62.6318V24.4866H61.8997V17.4662ZM57.5069 24.4866H56.7647V17.4662H57.5069V24.4866ZM61.9699 21.2472H57.4267V20.5953H61.9699V21.2472ZM65.5852 20.6053H69.296V21.2371H65.5852V20.6053ZM65.6654 23.8447H69.8877V24.4866H64.9232V17.4662H69.7373V18.108H65.6654V23.8447ZM75.8517 24.4866L73.4848 17.4662H74.247L76.4635 24.0754H76.0824L78.369 17.4662H79.051L81.3076 24.0754H80.9465L83.183 17.4662H83.8951L81.5282 24.4866H80.746L78.5897 18.2184H78.7903L76.624 24.4866H75.8517ZM88.2661 24.5468C87.7378 24.5468 87.2464 24.4599 86.7918 24.286C86.3438 24.1055 85.9526 23.8548 85.6183 23.5338C85.2907 23.2062 85.0333 22.8284 84.8461 22.4005C84.6656 21.9659 84.5753 21.4912 84.5753 20.9764C84.5753 20.4616 84.6656 19.9902 84.8461 19.5623C85.0333 19.1277 85.2907 18.7499 85.6183 18.429C85.9526 18.1013 86.3438 17.8506 86.7918 17.6768C87.2397 17.4963 87.7312 17.406 88.2661 17.406C88.7943 17.406 89.2823 17.4963 89.7303 17.6768C90.1783 17.8506 90.5661 18.098 90.8937 18.4189C91.228 18.7399 91.4854 19.1176 91.6659 19.5522C91.8532 19.9868 91.9468 20.4616 91.9468 20.9764C91.9468 21.4912 91.8532 21.9659 91.6659 22.4005C91.4854 22.8351 91.228 23.2129 90.8937 23.5338C90.5661 23.8548 90.1783 24.1055 89.7303 24.286C89.2823 24.4599 88.7943 24.5468 88.2661 24.5468ZM88.2661 23.8849C88.6873 23.8849 89.0751 23.8146 89.4294 23.6742C89.7905 23.5271 90.1014 23.3232 90.3622 23.0625C90.6296 22.795 90.8369 22.4874 90.984 22.1398C91.1311 21.7854 91.2046 21.3976 91.2046 20.9764C91.2046 20.5552 91.1311 20.1707 90.984 19.823C90.8369 19.4687 90.6296 19.1611 90.3622 18.9003C90.1014 18.6329 89.7905 18.429 89.4294 18.2886C89.0751 18.1415 88.6873 18.0679 88.2661 18.0679C87.8448 18.0679 87.4537 18.1415 87.0926 18.2886C86.7316 18.429 86.4173 18.6329 86.1499 18.9003C85.8891 19.1611 85.6819 19.4687 85.5281 19.823C85.381 20.1707 85.3074 20.5552 85.3074 20.9764C85.3074 21.3909 85.381 21.7754 85.5281 22.1297C85.6819 22.4841 85.8891 22.795 86.1499 23.0625C86.4173 23.3232 86.7316 23.5271 87.0926 23.6742C87.4537 23.8146 87.8448 23.8849 88.2661 23.8849ZM93.6103 24.4866V17.4662H96.2379C96.833 17.4662 97.3445 17.5631 97.7724 17.757C98.2003 17.9442 98.5279 18.2184 98.7553 18.5794C98.9893 18.9338 99.1063 19.365 99.1063 19.8732C99.1063 20.3679 98.9893 20.7959 98.7553 21.1569C98.5279 21.5113 98.2003 21.7854 97.7724 21.9793C97.3445 22.1665 96.833 22.2601 96.2379 22.2601H94.0215L94.3524 21.9191V24.4866H93.6103ZM98.4042 24.4866L96.599 21.9392H97.4013L99.2166 24.4866H98.4042ZM94.3524 21.9793L94.0215 21.6283H96.2179C96.9199 21.6283 97.4515 21.4745 97.8125 21.1669C98.1802 20.8594 98.3641 20.4281 98.3641 19.8732C98.3641 19.3115 98.1802 18.8769 97.8125 18.5694C97.4515 18.2618 96.9199 18.108 96.2179 18.108H94.0215L94.3524 17.757V21.9793ZM100.858 24.4866V17.4662H101.6V23.8447H105.532V24.4866H100.858ZM106.764 24.4866V17.4662H109.622C110.371 17.4662 111.026 17.6166 111.588 17.9175C112.156 18.2117 112.597 18.6229 112.912 19.1511C113.226 19.6793 113.383 20.2877 113.383 20.9764C113.383 21.6651 113.226 22.2735 112.912 22.8017C112.597 23.3299 112.156 23.7444 111.588 24.0453C111.026 24.3395 110.371 24.4866 109.622 24.4866H106.764ZM107.506 23.8447H109.582C110.204 23.8447 110.742 23.7244 111.197 23.4837C111.658 23.2363 112.016 22.8986 112.27 22.4707C112.524 22.0361 112.651 21.538 112.651 20.9764C112.651 20.4081 112.524 19.9099 112.27 19.482C112.016 19.0541 111.658 18.7198 111.197 18.4791C110.742 18.2317 110.204 18.108 109.582 18.108H107.506V23.8447Z" fill="#202020"/>
</svg>
